<svg xmlns="http://www.w3.org/2000/svg" viewBox="0 0 640 360" role="img" aria-label="Mouse gamer">
  <rect width="640" height="360" fill="#f7fbf8"/>
  <ellipse cx="320" cy="292" rx="150" ry="24" fill="#dfe8e3"/>
  <g transform="translate(206 46)">
    <path d="M114 0c76 0 118 70 118 154 0 80-44 142-118 142S0 234 0 154C0 70 38 0 114 0z" fill="#151f25"/>
    <path d="M114 10v110" stroke="#dbe2e6" stroke-width="6" opacity=".55"/>
    <path d="M28 96c18-52 46-78 86-78v102H48c-14 0-24-11-20-24z" fill="#26333b"/>
    <path d="M200 96c-18-52-46-78-86-78v102h66c14 0 24-11 20-24z" fill="#202b31"/>
    <rect x="101" y="52" width="26" height="48" rx="13" fill="#0b7a28"/>
    <path d="M52 164c28 42 96 42 124 0" fill="none" stroke="#0a9a62" stroke-width="10" stroke-linecap="round"/>
    <path d="M54 228c26 34 94 34 120 0" fill="none" stroke="#384851" stroke-width="14" stroke-linecap="round"/>
  </g>
</svg>
